<svg xmlns="http://www.w3.org/2000/svg" version="1.1" xmlns:xlink="http://www.w3.org/1999/xlink" xmlns:svgjs="http://svgjs.com/svgjs" width="1440" height="560" preserveAspectRatio="none" viewBox="0 0 1440 560"><g mask="url(&quot;#SvgjsMask1011&quot;)" fill="none"><rect width="1440" height="560" x="0" y="0" fill="rgba(255, 255, 255, 1)"></rect><path d="M0 89.09C45.84 36.7 59.75 39.93 122.5 0C129.75 -4.61 131.25 0 140 0C210 0 210 0 280 0C350 0 350 0 420 0C490 0 490 0 560 0C630 0 630 0 700 0C770 0 770 0 840 0C901.82 0 916.4 -19.33 963.64 0C986.4 9.31 970.44 57.27 980 57.27C989.87 57.27 978.44 9.84 1002.5 0C1048.44 -18.79 1061.25 0 1120 0C1190 0 1190 0 1260 0C1269.34 0 1278.67 -3.87 1278.67 0C1278.67 5.47 1271.26 11.9 1260 18.67C1191.92 59.58 1190.45 57.87 1120 95.36C1076.45 118.53 1072.78 113.05 1032 140C1002.78 159.31 1002.52 160.9 980 187.89C944.12 230.9 915.19 238.38 915.19 280C915.19 310.95 948.6 305.36 980 333.03C1028.05 375.36 1025.4 378.56 1074.1 420C1095.4 438.13 1094.18 452.18 1120 452.18C1178 452.18 1241.74 454.81 1241.74 420C1241.74 368.72 1115.26 342.12 1120 280C1124.39 222.57 1192.57 180.9 1260 180.9C1319.11 180.9 1317.15 229.79 1373.08 280C1387.15 292.63 1383.54 297.63 1400 306.58C1467 343.03 1486.94 327.83 1540 370.81C1556.94 384.54 1540 395.4 1540 420C1540 453.71 1545.54 454.58 1540 487.41C1533.73 524.58 1544.12 545.62 1516.39 560C1474.12 581.92 1458.2 560 1400 560C1344.49 560 1322.12 588.41 1288.97 560C1252.12 528.41 1274.65 440 1260 440C1245.34 440 1267.33 528.3 1230.35 560C1197.33 588.3 1175.18 560 1120 560C1050 560 1050 560 980 560C922.17 560 884.79 591.4 864.35 560C839.23 521.4 896.76 484.78 888.89 420C884.59 384.59 861.6 359.61 840 359.61C820.95 359.61 811.04 387.14 807.58 420C800.48 487.34 848 522.09 818.87 560C794.21 592.09 759.43 560 700 560C655 560 639.51 583.8 610 560C569.51 527.35 591.54 447.1 560 447.1C523.85 447.1 525.14 519.27 474.63 560C455.14 575.72 447.32 560 420 560C386.06 560 379.83 574.72 352.12 560C309.83 537.53 323.78 491.49 280 485.63C217.72 477.29 211.12 526.92 140 531.59C71.12 536.11 44.06 539.12 0 504C-25.94 483.33 0 462 0 420C0 350 0 350 0 280C0 210 0 210 0 140C0 114.55 -15.41 106.7 0 89.09" stroke="rgba(207, 32, 39, 1)" stroke-width="2"></path><path d="M280 87.21C251.87 91.16 253.79 110.19 241.2 140C213.09 206.59 187.92 217.39 198.6 280C207.32 331.14 242.49 367.5 280 367.5C313.36 367.5 310.17 323.75 340.34 280C380.17 222.25 373.36 214.25 420 164.5C438.98 144.25 471.58 152.38 471.58 140C471.58 127.56 447.47 122.44 420 114.87C351.68 96.04 341.27 78.6 280 87.21" stroke="rgba(13, 24, 48, 1)" stroke-width="2"></path><path d="M700 111.03C668.26 111.03 630 126.6 630 140C630 153.09 667.5 164 700 164C715.62 164 726.25 152.62 726.25 140C726.25 126.13 716.38 111.03 700 111.03" stroke="rgba(13, 24, 48, 1)" stroke-width="2"></path><path d="M1540 115.07C1512.29 115.07 1442.33 34.93 1442.33 0C1442.33 -22.6 1517.58 -26.41 1540 0C1566.41 31.12 1561.13 115.07 1540 115.07" stroke="rgba(13, 24, 48, 1)" stroke-width="2"></path><path d="M37.92 140C37.92 93.13 94.78 54.04 140 54.04C175.34 54.04 199.04 95.05 199.04 140C199.04 196.36 176.86 256.67 140 256.67C96.3 256.67 37.92 194.45 37.92 140" stroke="rgba(207, 32, 39, 1)" stroke-width="2"></path><path d="M280 29.84C251.23 26.07 228 7.99 228 0C228 -6.93 254 0 280 0C350 0 350 0 420 0C490 0 490 0 560 0C630 0 630 0 700 0C770 0 770 0 840 0C879.09 0 900.91 -24.94 918.18 0C949.37 45.06 952.58 75.34 936.92 140C918.67 215.34 894.76 210.85 850.37 280C846.3 286.34 843.72 284.44 840 290.98C803.91 354.44 792.93 351.51 770.74 420C749.35 486.02 778.57 509.07 752.83 560C743.2 579.07 726.41 560 700 560C680 560 670.42 574.55 660 560C620.27 504.55 630.87 489.54 599.7 420C580.87 377.98 582.24 336.88 560 336.88C536.31 336.88 536.66 380.39 507.84 420C466.66 476.59 466.55 529.27 420 529.27C369.3 529.27 317.97 479.9 313.33 420C308.32 355.27 356.47 349.65 400.69 280C409.8 265.65 404.96 258.61 420 252C484.62 223.61 488.51 219.7 560 210C628.51 200.7 638.04 233.63 700 214C748.51 198.63 780.94 178.9 780.94 140C780.94 97.25 749.06 58.04 700 50.69C638.59 41.49 627.48 113.07 560 106.91C487.48 100.29 495.11 45.8 420 25.13C355.11 7.27 347.23 38.64 280 29.84" stroke="rgba(207, 32, 39, 1)" stroke-width="2"></path><path d="M1120 44.64C1091.11 44.64 1065 12.56 1065 0C1065 -9.76 1092.5 0 1120 0C1155.82 0 1191.63 -10.25 1191.63 0C1191.63 12.07 1154.42 44.64 1120 44.64" stroke="rgba(13, 24, 48, 1)" stroke-width="2"></path><path d="M1540 67.12C1523.83 67.12 1483.02 20.37 1483.02 0C1483.02 -13.19 1526.92 -15.41 1540 0C1555.41 18.15 1552.32 67.12 1540 67.12" stroke="rgba(13, 24, 48, 1)" stroke-width="2"></path><path d="M1175.56 280C1175.56 246.01 1219.33 220.22 1260 220.22C1295.65 220.22 1295.07 249.07 1328.21 280C1365.07 314.41 1360.48 319.96 1400 350.89C1449.91 389.96 1489.62 370.88 1507.06 420C1526.73 475.43 1509.53 513.83 1474.22 560C1456 583.83 1437.11 560 1400 560C1364.6 560 1344.14 583.37 1329.2 560C1299.39 513.37 1333.41 483.36 1310.49 420C1298.81 387.7 1284.98 394.59 1260 368.67C1217.52 324.59 1175.56 320.23 1175.56 280" stroke="rgba(207, 32, 39, 1)" stroke-width="2"></path><path d="M4.52 420C4.52 372.62 75.87 306.49 140 306.49C196.11 306.49 245 371.15 245 420C245 458.34 194.07 480.87 140 480.87C73.83 480.87 4.52 459.81 4.52 420" stroke="rgba(13, 24, 48, 1)" stroke-width="2"></path><path d="M944.44 420C949.58 397.41 962.08 386.06 980 386.06C998.22 386.06 996.85 404.9 1016.72 420C1066.85 458.08 1071.19 452.79 1120 492.41C1157.42 522.79 1189.18 540.3 1189.18 560C1189.18 574.09 1154.59 560 1120 560C1050 560 1050 560 980 560C960.21 560 944.35 575.42 940.43 560C926.57 505.42 929.8 484.38 944.44 420" stroke="rgba(207, 32, 39, 1)" stroke-width="2"></path><path d="M110.83 140C110.83 126.61 127.08 115.44 140 115.44C150.1 115.44 156.87 127.16 156.87 140C156.87 156.1 150.53 173.33 140 173.33C127.51 173.33 110.83 155.55 110.83 140" stroke="rgba(207, 32, 39, 1)" stroke-width="2"></path><path d="M560 43.27C523.81 43.27 492 11.73 492 0C492 -9.9 526 0 560 0C616.66 0 673.33 -10.45 673.33 0C673.33 11.19 614.47 43.27 560 43.27" stroke="rgba(13, 24, 48, 1)" stroke-width="2"></path><path d="M835.63 140C782.23 69.06 724.12 42.61 725.45 0C726.31 -27.39 782.72 0 840 0C856.37 0 872.06 -13.09 872.73 0C875.65 56.91 862.07 70.79 847.18 140C845.7 146.87 843.02 152.17 840 152.17C837.24 152.17 839.51 145.15 835.63 140" stroke="rgba(13, 24, 48, 1)" stroke-width="2"></path><path d="M1540 19.18C1535.38 19.18 1523.72 5.82 1523.72 0C1523.72 -3.77 1536.26 -4.4 1540 0C1544.4 5.19 1543.52 19.18 1540 19.18" stroke="rgba(13, 24, 48, 1)" stroke-width="2"></path><path d="M644 280C651.05 257.11 672.46 264 700 264C719.77 264 734.73 262.07 738.62 280C751.67 340.07 744.29 351.3 733.89 420C724.98 478.8 720.09 535 700 535C679.11 535 665.12 480 651.94 420C637.12 352.5 627.02 335.11 644 280" stroke="rgba(207, 32, 39, 1)" stroke-width="2"></path><path d="M1231.11 280C1231.11 268.37 1246.09 259.55 1260 259.55C1272.2 259.55 1283.33 268.63 1283.33 280C1283.33 294.02 1272.46 310.33 1260 310.33C1246.35 310.33 1231.11 293.76 1231.11 280" stroke="rgba(207, 32, 39, 1)" stroke-width="2"></path><path d="M117.42 420C117.42 412.1 129.31 401.08 140 401.08C149.35 401.08 157.5 411.86 157.5 420C157.5 426.39 149.01 430.14 140 430.14C128.97 430.14 117.42 426.63 117.42 420" stroke="rgba(13, 24, 48, 1)" stroke-width="2"></path><path d="M396.67 420C396.67 401.08 409.14 379.17 420 379.17C430.42 379.17 439.22 400.73 439.22 420C439.22 433.1 430.18 443.9 420 443.9C408.91 443.9 396.67 433.44 396.67 420" stroke="rgba(207, 32, 39, 1)" stroke-width="2"></path><path d="M1367.87 420C1371.31 401.48 1383.41 395.19 1400 395.19C1418.69 395.19 1434.49 399.72 1438.43 420C1450.51 482.13 1447.69 503.03 1432.05 560C1428.47 573.03 1416.03 560 1400 560C1384.72 560 1372.31 572.54 1369.43 560C1356.24 502.54 1356.02 483.88 1367.87 420" stroke="rgba(207, 32, 39, 1)" stroke-width="2"></path><path d="M1037.93 560C1037.93 552.98 1082.11 532.64 1120 532.64C1137.15 532.64 1148 552.02 1148 560C1148 565.7 1134 560 1120 560C1078.97 560 1037.93 566.66 1037.93 560" stroke="rgba(207, 32, 39, 1)" stroke-width="2"></path></g><defs><mask id="SvgjsMask1011"><rect width="1440" height="560" fill="#ffffff"></rect></mask></defs></svg>